<mxfile host="app.diagrams.net" agent="Mozilla/5.0 (Windows NT 10.0; Win64; x64) AppleWebKit/537.36 (KHTML, like Gecko) Chrome/127.0.0.0 Safari/537.36" version="24.7.5">
  <diagram name="Страница — 1" id="SHWS2FNz5RdBOJzIcXpN">
    <mxGraphModel dx="1050" dy="530" grid="1" gridSize="10" guides="1" tooltips="1" connect="1" arrows="1" fold="1" page="1" pageScale="1" pageWidth="827" pageHeight="1169" math="0" shadow="0">
      <root>
        <mxCell id="0" />
        <mxCell id="1" parent="0" />
        <mxCell id="CENX-t2tFjpQdDw3mXfo-27" value="Жанр" style="swimlane;fontStyle=0;childLayout=stackLayout;horizontal=1;startSize=26;horizontalStack=0;resizeParent=1;resizeParentMax=0;resizeLast=0;collapsible=1;marginBottom=0;align=center;fontSize=14;" parent="1" vertex="1">
          <mxGeometry x="30" y="80" width="160" height="86" as="geometry" />
        </mxCell>
        <mxCell id="CENX-t2tFjpQdDw3mXfo-28" value="ID" style="text;strokeColor=none;fillColor=none;spacingLeft=4;spacingRight=4;overflow=hidden;rotatable=0;points=[[0,0.5],[1,0.5]];portConstraint=eastwest;fontSize=12;whiteSpace=wrap;html=1;" parent="CENX-t2tFjpQdDw3mXfo-27" vertex="1">
          <mxGeometry y="26" width="160" height="30" as="geometry" />
        </mxCell>
        <mxCell id="CENX-t2tFjpQdDw3mXfo-29" value="Название" style="text;strokeColor=none;fillColor=none;spacingLeft=4;spacingRight=4;overflow=hidden;rotatable=0;points=[[0,0.5],[1,0.5]];portConstraint=eastwest;fontSize=12;whiteSpace=wrap;html=1;" parent="CENX-t2tFjpQdDw3mXfo-27" vertex="1">
          <mxGeometry y="56" width="160" height="30" as="geometry" />
        </mxCell>
        <mxCell id="CENX-t2tFjpQdDw3mXfo-31" value="Исполнитель" style="swimlane;fontStyle=0;childLayout=stackLayout;horizontal=1;startSize=26;horizontalStack=0;resizeParent=1;resizeParentMax=0;resizeLast=0;collapsible=1;marginBottom=0;align=center;fontSize=14;" parent="1" vertex="1">
          <mxGeometry x="254" y="80" width="160" height="116" as="geometry" />
        </mxCell>
        <mxCell id="CENX-t2tFjpQdDw3mXfo-32" value="ID" style="text;strokeColor=none;fillColor=none;spacingLeft=4;spacingRight=4;overflow=hidden;rotatable=0;points=[[0,0.5],[1,0.5]];portConstraint=eastwest;fontSize=12;whiteSpace=wrap;html=1;" parent="CENX-t2tFjpQdDw3mXfo-31" vertex="1">
          <mxGeometry y="26" width="160" height="30" as="geometry" />
        </mxCell>
        <mxCell id="CENX-t2tFjpQdDw3mXfo-33" value="Имя&amp;nbsp;(псевдоним)" style="text;strokeColor=none;fillColor=none;spacingLeft=4;spacingRight=4;overflow=hidden;rotatable=0;points=[[0,0.5],[1,0.5]];portConstraint=eastwest;fontSize=12;whiteSpace=wrap;html=1;" parent="CENX-t2tFjpQdDw3mXfo-31" vertex="1">
          <mxGeometry y="56" width="160" height="30" as="geometry" />
        </mxCell>
        <mxCell id="CENX-t2tFjpQdDw3mXfo-34" value="Жанр" style="text;strokeColor=none;fillColor=none;spacingLeft=4;spacingRight=4;overflow=hidden;rotatable=0;points=[[0,0.5],[1,0.5]];portConstraint=eastwest;fontSize=12;whiteSpace=wrap;html=1;" parent="CENX-t2tFjpQdDw3mXfo-31" vertex="1">
          <mxGeometry y="86" width="160" height="30" as="geometry" />
        </mxCell>
        <mxCell id="CENX-t2tFjpQdDw3mXfo-36" value="Альбомы" style="swimlane;fontStyle=0;childLayout=stackLayout;horizontal=1;startSize=26;horizontalStack=0;resizeParent=1;resizeParentMax=0;resizeLast=0;collapsible=1;marginBottom=0;align=center;fontSize=14;" parent="1" vertex="1">
          <mxGeometry x="500" y="80" width="160" height="116" as="geometry" />
        </mxCell>
        <mxCell id="CENX-t2tFjpQdDw3mXfo-37" value="ID" style="text;strokeColor=none;fillColor=none;spacingLeft=4;spacingRight=4;overflow=hidden;rotatable=0;points=[[0,0.5],[1,0.5]];portConstraint=eastwest;fontSize=12;whiteSpace=wrap;html=1;" parent="CENX-t2tFjpQdDw3mXfo-36" vertex="1">
          <mxGeometry y="26" width="160" height="30" as="geometry" />
        </mxCell>
        <mxCell id="CENX-t2tFjpQdDw3mXfo-38" value="Название" style="text;strokeColor=none;fillColor=none;spacingLeft=4;spacingRight=4;overflow=hidden;rotatable=0;points=[[0,0.5],[1,0.5]];portConstraint=eastwest;fontSize=12;whiteSpace=wrap;html=1;" parent="CENX-t2tFjpQdDw3mXfo-36" vertex="1">
          <mxGeometry y="56" width="160" height="30" as="geometry" />
        </mxCell>
        <mxCell id="CENX-t2tFjpQdDw3mXfo-39" value="Год выпуска" style="text;strokeColor=none;fillColor=none;spacingLeft=4;spacingRight=4;overflow=hidden;rotatable=0;points=[[0,0.5],[1,0.5]];portConstraint=eastwest;fontSize=12;whiteSpace=wrap;html=1;" parent="CENX-t2tFjpQdDw3mXfo-36" vertex="1">
          <mxGeometry y="86" width="160" height="30" as="geometry" />
        </mxCell>
        <mxCell id="CENX-t2tFjpQdDw3mXfo-40" value="Трек" style="swimlane;fontStyle=0;childLayout=stackLayout;horizontal=1;startSize=26;horizontalStack=0;resizeParent=1;resizeParentMax=0;resizeLast=0;collapsible=1;marginBottom=0;align=center;fontSize=14;" parent="1" vertex="1">
          <mxGeometry x="700" y="80" width="160" height="146" as="geometry" />
        </mxCell>
        <mxCell id="CENX-t2tFjpQdDw3mXfo-41" value="ID" style="text;strokeColor=none;fillColor=none;spacingLeft=4;spacingRight=4;overflow=hidden;rotatable=0;points=[[0,0.5],[1,0.5]];portConstraint=eastwest;fontSize=12;whiteSpace=wrap;html=1;" parent="CENX-t2tFjpQdDw3mXfo-40" vertex="1">
          <mxGeometry y="26" width="160" height="30" as="geometry" />
        </mxCell>
        <mxCell id="CENX-t2tFjpQdDw3mXfo-42" value="Название" style="text;strokeColor=none;fillColor=none;spacingLeft=4;spacingRight=4;overflow=hidden;rotatable=0;points=[[0,0.5],[1,0.5]];portConstraint=eastwest;fontSize=12;whiteSpace=wrap;html=1;" parent="CENX-t2tFjpQdDw3mXfo-40" vertex="1">
          <mxGeometry y="56" width="160" height="30" as="geometry" />
        </mxCell>
        <mxCell id="CENX-t2tFjpQdDw3mXfo-43" value="Длительность" style="text;strokeColor=none;fillColor=none;spacingLeft=4;spacingRight=4;overflow=hidden;rotatable=0;points=[[0,0.5],[1,0.5]];portConstraint=eastwest;fontSize=12;whiteSpace=wrap;html=1;" parent="CENX-t2tFjpQdDw3mXfo-40" vertex="1">
          <mxGeometry y="86" width="160" height="30" as="geometry" />
        </mxCell>
        <mxCell id="CENX-t2tFjpQdDw3mXfo-47" value="Альбом" style="text;strokeColor=none;fillColor=none;spacingLeft=4;spacingRight=4;overflow=hidden;rotatable=0;points=[[0,0.5],[1,0.5]];portConstraint=eastwest;fontSize=12;whiteSpace=wrap;html=1;" parent="CENX-t2tFjpQdDw3mXfo-40" vertex="1">
          <mxGeometry y="116" width="160" height="30" as="geometry" />
        </mxCell>
        <mxCell id="q3rqAzEUj7QawYGMtYLP-32" style="edgeStyle=orthogonalEdgeStyle;rounded=0;orthogonalLoop=1;jettySize=auto;html=1;exitX=0.75;exitY=0;exitDx=0;exitDy=0;entryX=0.918;entryY=-0.04;entryDx=0;entryDy=0;entryPerimeter=0;" edge="1" parent="CENX-t2tFjpQdDw3mXfo-40" source="CENX-t2tFjpQdDw3mXfo-40" target="CENX-t2tFjpQdDw3mXfo-41">
          <mxGeometry relative="1" as="geometry" />
        </mxCell>
        <mxCell id="q3rqAzEUj7QawYGMtYLP-1" value="Сборники" style="swimlane;fontStyle=0;childLayout=stackLayout;horizontal=1;startSize=26;horizontalStack=0;resizeParent=1;resizeParentMax=0;resizeLast=0;collapsible=1;marginBottom=0;align=center;fontSize=14;" vertex="1" parent="1">
          <mxGeometry x="720" y="270" width="160" height="116" as="geometry" />
        </mxCell>
        <mxCell id="q3rqAzEUj7QawYGMtYLP-2" value="ID" style="text;strokeColor=none;fillColor=none;spacingLeft=4;spacingRight=4;overflow=hidden;rotatable=0;points=[[0,0.5],[1,0.5]];portConstraint=eastwest;fontSize=12;whiteSpace=wrap;html=1;" vertex="1" parent="q3rqAzEUj7QawYGMtYLP-1">
          <mxGeometry y="26" width="160" height="30" as="geometry" />
        </mxCell>
        <mxCell id="q3rqAzEUj7QawYGMtYLP-3" value="Название" style="text;strokeColor=none;fillColor=none;spacingLeft=4;spacingRight=4;overflow=hidden;rotatable=0;points=[[0,0.5],[1,0.5]];portConstraint=eastwest;fontSize=12;whiteSpace=wrap;html=1;" vertex="1" parent="q3rqAzEUj7QawYGMtYLP-1">
          <mxGeometry y="56" width="160" height="30" as="geometry" />
        </mxCell>
        <mxCell id="q3rqAzEUj7QawYGMtYLP-4" value="Год выпуска" style="text;strokeColor=none;fillColor=none;spacingLeft=4;spacingRight=4;overflow=hidden;rotatable=0;points=[[0,0.5],[1,0.5]];portConstraint=eastwest;fontSize=12;whiteSpace=wrap;html=1;" vertex="1" parent="q3rqAzEUj7QawYGMtYLP-1">
          <mxGeometry y="86" width="160" height="30" as="geometry" />
        </mxCell>
        <mxCell id="q3rqAzEUj7QawYGMtYLP-7" value="Исполнитель_Жанр" style="swimlane;fontStyle=0;childLayout=stackLayout;horizontal=1;startSize=26;horizontalStack=0;resizeParent=1;resizeParentMax=0;resizeLast=0;collapsible=1;marginBottom=0;align=center;fontSize=14;" vertex="1" parent="1">
          <mxGeometry x="30" y="270" width="160" height="116" as="geometry" />
        </mxCell>
        <mxCell id="q3rqAzEUj7QawYGMtYLP-8" value="PK" style="text;strokeColor=none;fillColor=none;spacingLeft=4;spacingRight=4;overflow=hidden;rotatable=0;points=[[0,0.5],[1,0.5]];portConstraint=eastwest;fontSize=12;whiteSpace=wrap;html=1;" vertex="1" parent="q3rqAzEUj7QawYGMtYLP-7">
          <mxGeometry y="26" width="160" height="30" as="geometry" />
        </mxCell>
        <mxCell id="q3rqAzEUj7QawYGMtYLP-9" value="Имя&amp;nbsp;(псевдоним)" style="text;strokeColor=none;fillColor=none;spacingLeft=4;spacingRight=4;overflow=hidden;rotatable=0;points=[[0,0.5],[1,0.5]];portConstraint=eastwest;fontSize=12;whiteSpace=wrap;html=1;" vertex="1" parent="q3rqAzEUj7QawYGMtYLP-7">
          <mxGeometry y="56" width="160" height="30" as="geometry" />
        </mxCell>
        <mxCell id="q3rqAzEUj7QawYGMtYLP-10" value="Жанр" style="text;strokeColor=none;fillColor=none;spacingLeft=4;spacingRight=4;overflow=hidden;rotatable=0;points=[[0,0.5],[1,0.5]];portConstraint=eastwest;fontSize=12;whiteSpace=wrap;html=1;" vertex="1" parent="q3rqAzEUj7QawYGMtYLP-7">
          <mxGeometry y="86" width="160" height="30" as="geometry" />
        </mxCell>
        <mxCell id="q3rqAzEUj7QawYGMtYLP-13" value="Исполнитель_Альбом" style="swimlane;fontStyle=0;childLayout=stackLayout;horizontal=1;startSize=26;horizontalStack=0;resizeParent=1;resizeParentMax=0;resizeLast=0;collapsible=1;marginBottom=0;align=center;fontSize=14;" vertex="1" parent="1">
          <mxGeometry x="254" y="270" width="160" height="116" as="geometry" />
        </mxCell>
        <mxCell id="q3rqAzEUj7QawYGMtYLP-14" value="PK" style="text;strokeColor=none;fillColor=none;spacingLeft=4;spacingRight=4;overflow=hidden;rotatable=0;points=[[0,0.5],[1,0.5]];portConstraint=eastwest;fontSize=12;whiteSpace=wrap;html=1;" vertex="1" parent="q3rqAzEUj7QawYGMtYLP-13">
          <mxGeometry y="26" width="160" height="30" as="geometry" />
        </mxCell>
        <mxCell id="q3rqAzEUj7QawYGMtYLP-15" value="Имя&amp;nbsp;(псевдоним)" style="text;strokeColor=none;fillColor=none;spacingLeft=4;spacingRight=4;overflow=hidden;rotatable=0;points=[[0,0.5],[1,0.5]];portConstraint=eastwest;fontSize=12;whiteSpace=wrap;html=1;" vertex="1" parent="q3rqAzEUj7QawYGMtYLP-13">
          <mxGeometry y="56" width="160" height="30" as="geometry" />
        </mxCell>
        <mxCell id="q3rqAzEUj7QawYGMtYLP-16" value="Альбом" style="text;strokeColor=none;fillColor=none;spacingLeft=4;spacingRight=4;overflow=hidden;rotatable=0;points=[[0,0.5],[1,0.5]];portConstraint=eastwest;fontSize=12;whiteSpace=wrap;html=1;" vertex="1" parent="q3rqAzEUj7QawYGMtYLP-13">
          <mxGeometry y="86" width="160" height="30" as="geometry" />
        </mxCell>
        <mxCell id="q3rqAzEUj7QawYGMtYLP-18" style="edgeStyle=orthogonalEdgeStyle;rounded=0;orthogonalLoop=1;jettySize=auto;html=1;exitX=0;exitY=0.5;exitDx=0;exitDy=0;entryX=0;entryY=0.5;entryDx=0;entryDy=0;" edge="1" parent="1" source="q3rqAzEUj7QawYGMtYLP-10" target="CENX-t2tFjpQdDw3mXfo-28">
          <mxGeometry relative="1" as="geometry" />
        </mxCell>
        <mxCell id="q3rqAzEUj7QawYGMtYLP-21" style="edgeStyle=orthogonalEdgeStyle;rounded=0;orthogonalLoop=1;jettySize=auto;html=1;entryX=0;entryY=0.5;entryDx=0;entryDy=0;" edge="1" parent="1" source="q3rqAzEUj7QawYGMtYLP-16" target="CENX-t2tFjpQdDw3mXfo-37">
          <mxGeometry relative="1" as="geometry" />
        </mxCell>
        <mxCell id="q3rqAzEUj7QawYGMtYLP-22" style="edgeStyle=orthogonalEdgeStyle;rounded=0;orthogonalLoop=1;jettySize=auto;html=1;exitX=1;exitY=0.5;exitDx=0;exitDy=0;entryX=0;entryY=0.5;entryDx=0;entryDy=0;" edge="1" parent="1" source="q3rqAzEUj7QawYGMtYLP-9" target="CENX-t2tFjpQdDw3mXfo-32">
          <mxGeometry relative="1" as="geometry" />
        </mxCell>
        <mxCell id="q3rqAzEUj7QawYGMtYLP-23" style="edgeStyle=orthogonalEdgeStyle;rounded=0;orthogonalLoop=1;jettySize=auto;html=1;exitX=1;exitY=0.5;exitDx=0;exitDy=0;entryX=1;entryY=0.5;entryDx=0;entryDy=0;" edge="1" parent="1" source="q3rqAzEUj7QawYGMtYLP-15" target="CENX-t2tFjpQdDw3mXfo-32">
          <mxGeometry relative="1" as="geometry" />
        </mxCell>
        <mxCell id="q3rqAzEUj7QawYGMtYLP-24" style="edgeStyle=orthogonalEdgeStyle;rounded=0;orthogonalLoop=1;jettySize=auto;html=1;entryX=1;entryY=0.5;entryDx=0;entryDy=0;" edge="1" parent="1" source="CENX-t2tFjpQdDw3mXfo-47" target="CENX-t2tFjpQdDw3mXfo-37">
          <mxGeometry relative="1" as="geometry" />
        </mxCell>
        <mxCell id="q3rqAzEUj7QawYGMtYLP-25" value="Сборник_Трек" style="swimlane;fontStyle=0;childLayout=stackLayout;horizontal=1;startSize=26;horizontalStack=0;resizeParent=1;resizeParentMax=0;resizeLast=0;collapsible=1;marginBottom=0;align=center;fontSize=14;" vertex="1" parent="1">
          <mxGeometry x="510" y="280" width="160" height="116" as="geometry" />
        </mxCell>
        <mxCell id="q3rqAzEUj7QawYGMtYLP-26" value="PK" style="text;strokeColor=none;fillColor=none;spacingLeft=4;spacingRight=4;overflow=hidden;rotatable=0;points=[[0,0.5],[1,0.5]];portConstraint=eastwest;fontSize=12;whiteSpace=wrap;html=1;" vertex="1" parent="q3rqAzEUj7QawYGMtYLP-25">
          <mxGeometry y="26" width="160" height="30" as="geometry" />
        </mxCell>
        <mxCell id="q3rqAzEUj7QawYGMtYLP-27" value="Название трека" style="text;strokeColor=none;fillColor=none;spacingLeft=4;spacingRight=4;overflow=hidden;rotatable=0;points=[[0,0.5],[1,0.5]];portConstraint=eastwest;fontSize=12;whiteSpace=wrap;html=1;" vertex="1" parent="q3rqAzEUj7QawYGMtYLP-25">
          <mxGeometry y="56" width="160" height="30" as="geometry" />
        </mxCell>
        <mxCell id="q3rqAzEUj7QawYGMtYLP-28" value="Название сборника" style="text;strokeColor=none;fillColor=none;spacingLeft=4;spacingRight=4;overflow=hidden;rotatable=0;points=[[0,0.5],[1,0.5]];portConstraint=eastwest;fontSize=12;whiteSpace=wrap;html=1;" vertex="1" parent="q3rqAzEUj7QawYGMtYLP-25">
          <mxGeometry y="86" width="160" height="30" as="geometry" />
        </mxCell>
        <mxCell id="q3rqAzEUj7QawYGMtYLP-31" style="edgeStyle=orthogonalEdgeStyle;rounded=0;orthogonalLoop=1;jettySize=auto;html=1;entryX=0;entryY=0.5;entryDx=0;entryDy=0;" edge="1" parent="1" source="q3rqAzEUj7QawYGMtYLP-28" target="q3rqAzEUj7QawYGMtYLP-2">
          <mxGeometry relative="1" as="geometry" />
        </mxCell>
        <mxCell id="q3rqAzEUj7QawYGMtYLP-33" style="edgeStyle=orthogonalEdgeStyle;rounded=0;orthogonalLoop=1;jettySize=auto;html=1;exitX=0;exitY=0.5;exitDx=0;exitDy=0;entryX=1;entryY=0.5;entryDx=0;entryDy=0;" edge="1" parent="1" source="q3rqAzEUj7QawYGMtYLP-27" target="CENX-t2tFjpQdDw3mXfo-41">
          <mxGeometry relative="1" as="geometry" />
        </mxCell>
      </root>
    </mxGraphModel>
  </diagram>
</mxfile>
